<svg width="18" height="18" viewBox="0 0 18 18" fill="none" xmlns="http://www.w3.org/2000/svg">
<g clip-path="url(#clip0_6_149)">
<path d="M6.78093 13.9659C6.35392 14.6598 5.50813 15.7027 4.09577 16.0352L4.42012 14.9677C4.42012 14.9677 3.16786 15.8012 1.96488 16.0352C2.19892 14.8281 3.0324 13.58 3.0324 13.58L1.96488 13.9043C2.29742 12.4919 3.3403 11.6462 4.03417 11.2192L6.9907 10.5983L6.78093 13.9659Z" fill="#FCC400"/>
<path d="M11.452 16.8051C9.90934 18.3477 7.43937 18.3966 5.83825 16.9523C6.47029 16.8853 7.15165 16.3826 7.24696 15.4979C7.28668 15.1305 7.22488 14.6969 7.01637 14.2012L3.79884 10.9836C3.30314 10.7751 2.86952 10.7133 2.50207 10.753C1.6174 10.8484 1.11466 11.5297 1.04769 12.1617C-0.39656 10.5606 -0.347763 8.0907 1.19493 6.54798C2.10716 5.63574 3.34441 5.24604 4.53424 5.37896C5.07979 5.43999 5.61522 5.61033 6.10494 5.89126L12.1087 11.895C12.3896 12.3847 12.5603 12.9204 12.621 13.4657C12.754 14.6555 12.3642 15.8928 11.452 16.8051Z" fill="#E30E08"/>
<path d="M12.621 13.4658C11.023 14.533 9.19549 15.206 7.24696 15.4979C7.28668 15.1304 7.22488 14.6968 7.01637 14.2011L3.79884 10.9836C3.30314 10.7751 2.86952 10.7133 2.50207 10.753C2.79393 8.80448 3.467 6.97692 4.5342 5.37897C5.07975 5.44 5.61518 5.61033 6.10491 5.89126L12.1086 11.895C12.3896 12.3848 12.5603 12.9204 12.621 13.4658Z" fill="#C40606"/>
<path d="M7.01626 14.2012C9.52065 13.626 11.8991 12.3634 13.8501 10.4124C16.7155 7.54698 18.0967 3.75971 17.9947 0.0052749C14.2403 -0.0967132 10.453 1.2845 7.58762 4.14991C5.63659 6.10093 4.37396 8.47932 3.79877 10.9837L7.01626 14.2012Z" fill="#E3E8EC"/>
<path d="M9.215 5.77732C7.26411 7.7282 5.71133 9.81694 4.63499 11.8198L3.79887 10.9836C4.37375 8.47942 5.63677 6.10089 7.58766 4.15001C10.453 1.28457 14.2403 -0.0965779 17.9948 0.00548051C15.2423 0.905479 12.0804 2.91195 9.215 5.77732Z" fill="#D5D8DB"/>
<path d="M17.1573 5.21514C16.3184 4.71114 15.4864 4.06455 14.711 3.28922C14.3366 2.9148 13.9925 2.52759 13.6799 2.13293C13.3446 1.7094 13.0452 1.27709 12.784 0.842909C14.4545 0.239172 16.2158 -0.0399679 17.9701 0.00471561C17.9784 0.00524296 17.9867 0.00524296 17.9948 0.00548905L17.9946 0.00573514C18.0423 1.76783 17.7637 3.53693 17.1573 5.21514Z" fill="#E30E08"/>
<path d="M17.4446 12.0926C17.4443 12.0924 17.4446 12.0921 17.4443 12.0919L17.4446 12.0926Z" fill="#E30E08"/>
<path d="M17.9948 0.00548905L17.9945 0.00573514C16.6284 0.452113 15.1613 1.17137 13.6799 2.13293C13.3447 1.7094 13.0453 1.27709 12.784 0.842909C14.4545 0.239172 16.2158 -0.0399679 17.9701 0.00471561C17.9784 0.00524296 17.9867 0.00524296 17.9948 0.00548905Z" fill="#C40606"/>
<path d="M11.7019 8.94408C13.1632 8.94408 14.3478 7.75949 14.3478 6.29823C14.3478 4.83696 13.1632 3.65237 11.7019 3.65237C10.2407 3.65237 9.05606 4.83696 9.05606 6.29823C9.05606 7.75949 10.2407 8.94408 11.7019 8.94408Z" fill="#E30E08"/>
<path d="M11.7019 8.07998C12.6859 8.07998 13.4837 7.28226 13.4837 6.29823C13.4837 5.3142 12.6859 4.51648 11.7019 4.51648C10.7179 4.51648 9.92016 5.3142 9.92016 6.29823C9.92016 7.28226 10.7179 8.07998 11.7019 8.07998Z" fill="#A0D9F2"/>
</g>
<defs>
<clipPath id="clip0_6_149">
<rect width="18" height="18" fill="white"/>
</clipPath>
</defs>
</svg>
